<?xml version="1.0" encoding="UTF-8" standalone="no"?>
<svg
   xmlns:dc="http://purl.org/dc/elements/1.1/"
   xmlns:cc="http://creativecommons.org/ns#"
   xmlns:rdf="http://www.w3.org/1999/02/22-rdf-syntax-ns#"
   xmlns:svg="http://www.w3.org/2000/svg"
   xmlns="http://www.w3.org/2000/svg"
   xmlns:sodipodi="http://sodipodi.sourceforge.net/DTD/sodipodi-0.dtd"
   xmlns:inkscape="http://www.inkscape.org/namespaces/inkscape"
   inkscape:version="1.0 (4035a4fb49, 2020-05-01)"
   sodipodi:docname="rank (2).svg"
   version="1.1"
   width="512"
   viewBox="0 0 512 512"
   height="512"
   enable-background="new 0 0 512 512"
   id="Capa_1">
  <metadata
     id="metadata31">
    <rdf:RDF>
      <cc:Work
         rdf:about="">
        <dc:format>image/svg+xml</dc:format>
        <dc:type
           rdf:resource="http://purl.org/dc/dcmitype/StillImage" />
      </cc:Work>
    </rdf:RDF>
  </metadata>
  <defs
     id="defs29" />
  <sodipodi:namedview
     inkscape:current-layer="g24"
     inkscape:window-maximized="1"
     inkscape:window-y="28"
     inkscape:window-x="1600"
     inkscape:cy="256"
     inkscape:cx="121.30233"
     inkscape:zoom="1.34375"
     showgrid="false"
     id="namedview27"
     inkscape:window-height="1020"
     inkscape:window-width="1920"
     inkscape:pageshadow="2"
     inkscape:pageopacity="0"
     guidetolerance="10"
     gridtolerance="10"
     objecttolerance="10"
     borderopacity="1"
     bordercolor="#666666"
     pagecolor="#ffffff" />
  <g
     id="g24">
    <g
       id="g20">
      <path
         style="fill:#00df10;fill-opacity:1"
         id="path2"
         fill="#dc5c65"
         d="m387.732 53.84h-263.464v125.968l131.732 87.149 131.732-87.149z" />
      <path
         style="fill:#00820a;fill-opacity:1"
         id="path4"
         fill="#b94551"
         d="m124.268 53.84h263.464v18h-263.464z" />
      <path
         style="fill:#003300;fill-opacity:1"
         id="path6"
         fill="#eaf1ff"
         d="m198.677 229.034 57.323 37.923 57.323-37.923v-175.194h-114.646z" />
      <path
         style="fill:#00820a;fill-opacity:1"
         id="path8"
         fill="#d5e7ff"
         d="m198.677 53.84h114.646v18h-114.646z" />
      <path
         id="path10"
         fill="#08475e"
         d="m393.501 53.84h-275.003c-12.658 0-22.92-10.262-22.92-22.92 0-12.658 10.262-22.92 22.92-22.92h275.003c12.659 0 22.92 10.262 22.92 22.92.001 12.659-10.261 22.92-22.92 22.92z" />
      <path
         id="path12"
         fill="#05303d"
         d="m393.501 35.84h-275.003c-9.463 0-17.585-5.736-21.084-13.92-1.181 2.763-1.837 5.805-1.837 9 0 12.659 10.262 22.92 22.92 22.92h275.003c12.658 0 22.92-10.262 22.92-22.92 0-3.195-.655-6.237-1.837-9-3.496 8.184-11.618 13.92-21.082 13.92z" />
      <path
         style="fill:#fff817;fill-opacity:1"
         id="path14"
         fill="#f7e471"
         d="m269.038 320.607 23.096 36.975c2.112 3.381 5.454 5.809 9.322 6.773l42.302 10.54c11.027 2.747 15.364 16.096 8.058 24.8l-28.028 33.392c-2.563 3.053-3.839 6.982-3.561 10.958l3.048 43.489c.794 11.336-10.561 19.586-21.096 15.327l-40.418-16.337c-3.695-1.494-7.827-1.494-11.522 0l-40.418 16.337c-10.536 4.259-21.891-3.991-21.096-15.327l3.048-43.489c.279-3.976-.998-7.905-3.561-10.958l-28.028-33.392c-7.306-8.704-2.969-22.053 8.058-24.8l42.302-10.54c3.868-.964 7.21-3.392 9.322-6.773l23.096-36.975c6.02-9.638 20.056-9.638 26.076 0z" />
      <g
         id="g18">
        <path
           style="fill:#e7ee00;fill-opacity:1"
           id="path16"
           fill="#f1cb66"
           d="m261.761 468.523c-3.695-1.494-7.827-1.494-11.522 0l-60.883 24.609c2.519 8.232 11.767 13.244 20.464 9.728l40.418-16.337c3.695-1.494 7.827-1.494 11.522 0l40.418 16.337c8.697 3.516 17.946-1.496 20.464-9.728z" />
      </g>
    </g>
    <path
       id="path22"
       d="m424.251 30.48c0-16.806-13.673-30.48-30.479-30.48h-28.618c-4.151 0-7.515 3.364-7.515 7.515s3.364 7.515 7.515 7.515h28.618c8.52 0 15.45 6.931 15.45 15.45s-6.931 15.451-15.45 15.451h-275.543c-8.52 0-15.451-6.931-15.451-15.451s6.931-15.45 15.451-15.45h216.865c4.151 0 7.515-3.364 7.515-7.515s-3.364-7.515-7.515-7.515h-216.865c-16.807 0-30.48 13.673-30.48 30.48 0 16.225 12.743 29.526 28.746 30.428v118.752c0 2.522 1.265 4.876 3.368 6.267l21.093 13.954c3.461 2.29 8.124 1.34 10.414-2.121s1.34-8.123-2.121-10.413l-17.725-11.726v-114.661h59.525v154.041l-16.7-11.048c-3.462-2.292-8.125-1.342-10.413 2.121-2.29 3.461-1.341 8.123 2.121 10.413l72.836 48.185c-8.234 5.528-13.664 14.923-13.664 25.564 0 10.152 4.944 19.167 12.548 24.775-.426.561-.836 1.137-1.214 1.742l-23.142 37.048c-1.089 1.744-2.787 2.978-4.783 3.475l-42.385 10.561c-7.72 1.923-13.797 7.589-16.255 15.156-2.459 7.566-.873 15.723 4.242 21.817l28.083 33.457c1.322 1.574 1.971 3.571 1.827 5.622l-3.054 43.574c-.556 7.936 2.954 15.467 9.39 20.143 6.437 4.676 14.684 5.688 22.059 2.707l40.498-16.37c1.905-.772 4.006-.772 5.912 0l40.498 16.37c2.797 1.131 5.719 1.687 8.62 1.687 4.749 0 9.442-1.491 13.438-4.394 6.436-4.676 9.947-12.207 9.391-20.143l-3.055-43.573c-.144-2.052.506-4.049 1.827-5.623l3.474-4.138c2.668-3.179 2.254-7.919-.924-10.587-3.177-2.667-7.918-2.253-10.587.924l-3.474 4.138c-3.841 4.575-5.726 10.377-5.308 16.337l3.055 43.574c.194 2.772-.984 5.299-3.233 6.934-2.25 1.632-5.017 1.974-7.593.932l-40.497-16.37c-5.539-2.238-11.639-2.239-17.178 0l-40.497 16.37c-2.577 1.04-5.344.701-7.593-.932-2.249-1.634-3.427-4.161-3.232-6.934l3.054-43.574c.418-5.959-1.467-11.76-5.308-16.337l-28.083-33.457c-1.787-2.128-2.32-4.866-1.46-7.509.859-2.644 2.898-4.545 5.596-5.217l42.385-10.561c5.798-1.444 10.732-5.03 13.896-10.096l23.142-37.048c1.47-2.354 3.904-3.704 6.678-3.709h.012.011c2.775.004 5.208 1.355 6.679 3.71l23.142 37.046c3.163 5.067 8.099 8.652 13.896 10.097l42.386 10.561c2.697.672 4.736 2.573 5.595 5.216.859 2.644.327 5.382-1.46 7.51l-5.235 6.236c-2.668 3.179-2.255 7.919.924 10.587 3.179 2.669 7.919 2.254 10.587-.924l5.236-6.237c5.115-6.094 6.701-14.25 4.242-21.817s-8.536-13.232-16.255-15.155l-42.385-10.561c-1.995-.497-3.694-1.731-4.783-3.475l-23.142-37.047c-.378-.606-.789-1.181-1.215-1.742 7.604-5.608 12.549-14.624 12.549-24.776 0-10.641-5.431-20.036-13.665-25.564l119.029-78.745c2.104-1.391 3.369-3.746 3.369-6.267v-118.752c16.003-.902 28.747-14.203 28.747-30.428zm-218.172 30.48h99.842v163.983l-49.921 33.026-49.921-33.025zm49.921 245.018c-8.68 0-15.742-7.062-15.742-15.742s7.062-15.742 15.742-15.742 15.742 7.062 15.742 15.742-7.062 15.742-15.742 15.742zm124.475-130.357-59.525 39.379v-154.04h59.525z" />
  </g>
</svg>
